ffmpeg started on 2016-11-24 at 19:52:34
Report written to "Output/NVENCh264/results/ffmpeg/Tcrowd_run_2160p50hp14000k.log"
Command line:
Tools/ffmpeg/ffmpeg -i Output/NVENCh264/encoded/crowd_run_2160p50hp14000k.mkv -c:v rawvideo -pix_fmt yuv420p Output/NVENCh264/transcoded/crowd_run_2160p50hp14000k.yuv
ffmpeg version N-82227-gdb23fde Copyright (c) 2000-2016 the FFmpeg developers
  built with gcc 5.4.0 (Ubuntu 5.4.0-6ubuntu1~16.04.2) 20160609
  configuration: --prefix=/home/jaroslav/ffmpeg_build --pkg-config-flags=--static --extra-cflags=-I/home/jaroslav/ffmpeg_build/include --extra-ldflags=-L/home/jaroslav/ffmpeg_build/lib --bindir=/home/jaroslav/bin --enable-gpl --enable-libass --enable-libfdk-aac --enable-libfreetype --enable-libmp3lame --enable-libopus --enable-libtheora --enable-libvorbis --enable-libvpx --enable-libx264 --enable-libx265 --enable-nvenc --enable-libmfx --enable-libxvid --enable-libgsm --enable-libopencore-amrnb --enable-version3 --enable-nonfree
  libavutil      55. 35.100 / 55. 35.100
  libavcodec     57. 66.101 / 57. 66.101
  libavformat    57. 57.100 / 57. 57.100
  libavdevice    57.  2.100 / 57.  2.100
  libavfilter     6. 66.100 /  6. 66.100
  libswscale      4.  3.100 /  4.  3.100
  libswresample   2.  4.100 /  2.  4.100
  libpostproc    54.  2.100 / 54.  2.100
Input #0, matroska,webm, from 'Output/NVENCh264/encoded/crowd_run_2160p50hp14000k.mkv':
  Metadata:
    ENCODER         : Lavf57.57.100
  Duration: 00:00:10.00, start: 0.000000, bitrate: 14020 kb/s
    Stream #0:0: Video: h264 (Main), yuv420p(progressive), 3840x2160 [SAR 1:1 DAR 16:9], 50 fps, 50 tbr, 1k tbn, 100 tbc (default)
    Metadata:
      ENCODER         : Lavc57.66.101 h264_nvenc
      DURATION        : 00:00:10.000000000
Output #0, rawvideo, to 'Output/NVENCh264/transcoded/crowd_run_2160p50hp14000k.yuv':
  Metadata:
    encoder         : Lavf57.57.100
    Stream #0:0: Video: rawvideo (I420 / 0x30323449), yuv420p, 3840x2160 [SAR 1:1 DAR 16:9], q=2-31, 200 kb/s, 50 fps, 50 tbn, 50 tbc (default)
    Metadata:
      DURATION        : 00:00:10.000000000
      encoder         : Lavc57.66.101 rawvideo
Stream mapping:
  Stream #0:0 -> #0:0 (h264 (native) -> rawvideo (native))
Press [q] to stop, [?] for help
frame=   16 fps=0.0 q=-0.0 size=  194400kB time=00:00:00.32 bitrate=4976640.0kbits/s speed=0.628x    frame=   33 fps= 32 q=-0.0 size=  400950kB time=00:00:00.66 bitrate=4976640.0kbits/s speed=0.637x    frame=   50 fps= 32 q=-0.0 size=  607500kB time=00:00:01.00 bitrate=4976640.0kbits/s speed=0.642x    frame=   67 fps= 32 q=-0.0 size=  814050kB time=00:00:01.34 bitrate=4976640.0kbits/s speed=0.644x    frame=   84 fps= 32 q=-0.0 size= 1020600kB time=00:00:01.68 bitrate=4976640.0kbits/s speed=0.645x    frame=  101 fps= 32 q=-0.0 size= 1227150kB time=00:00:02.02 bitrate=4976640.0kbits/s speed=0.644x    frame=  118 fps= 32 q=-0.0 size= 1433700kB time=00:00:02.36 bitrate=4976640.0kbits/s speed=0.645x    frame=  135 fps= 32 q=-0.0 size= 1640250kB time=00:00:02.70 bitrate=4976640.0kbits/s speed=0.645x    frame=  152 fps= 32 q=-0.0 size= 1846800kB time=00:00:03.04 bitrate=4976640.0kbits/s speed=0.646x    frame=  169 fps= 32 q=-0.0 size= 2053350kB time=00:00:03.38 bitrate=4976640.0kbits/s speed=0.647x    frame=  186 fps= 32 q=-0.0 size= 2259900kB time=00:00:03.72 bitrate=4976640.0kbits/s speed=0.648x    frame=  203 fps= 32 q=-0.0 size= 2466450kB time=00:00:04.06 bitrate=4976640.0kbits/s speed=0.648x    frame=  220 fps= 32 q=-0.0 size= 2673000kB time=00:00:04.40 bitrate=4976640.0kbits/s speed=0.649x    frame=  237 fps= 32 q=-0.0 size= 2879550kB time=00:00:04.74 bitrate=4976640.0kbits/s speed=0.649x    frame=  254 fps= 32 q=-0.0 size= 3086100kB time=00:00:05.08 bitrate=4976640.0kbits/s speed=0.65x    frame=  268 fps= 32 q=-0.0 size= 3256200kB time=00:00:05.36 bitrate=4976640.0kbits/s speed=0.644x    frame=  282 fps= 32 q=-0.0 size= 3426300kB time=00:00:05.64 bitrate=4976640.0kbits/s speed=0.639x    frame=  296 fps= 32 q=-0.0 size= 3596400kB time=00:00:05.92 bitrate=4976640.0kbits/s speed=0.63x    frame=  309 fps= 31 q=-0.0 size= 3754350kB time=00:00:06.18 bitrate=4976640.0kbits/s speed=0.624x    frame=  321 fps= 31 q=-0.0 size= 3900150kB time=00:00:06.42 bitrate=4976640.0kbits/s speed=0.613x    frame=  328 fps= 30 q=-0.0 size= 3985200kB time=00:00:06.56 bitrate=4976640.0kbits/s speed=0.598x    frame=  340 fps= 29 q=-0.0 size= 4131000kB time=00:00:06.80 bitrate=4976640.0kbits/s speed=0.588x    frame=  352 fps= 29 q=-0.0 size= 4276800kB time=00:00:07.04 bitrate=4976640.0kbits/s speed=0.58x    frame=  368 fps= 29 q=-0.0 size= 4471200kB time=00:00:07.36 bitrate=4976640.0kbits/s speed=0.582x    frame=  382 fps= 29 q=-0.0 size= 4641300kB time=00:00:07.64 bitrate=4976640.0kbits/s speed=0.58x    frame=  398 fps= 29 q=-0.0 size= 4835700kB time=00:00:07.96 bitrate=4976640.0kbits/s speed=0.582x    frame=  407 fps= 29 q=-0.0 size= 4945050kB time=00:00:08.14 bitrate=4976640.0kbits/s speed=0.574x    frame=  422 fps= 29 q=-0.0 size= 5127300kB time=00:00:08.44 bitrate=4976640.0kbits/s speed=0.574x    frame=  434 fps= 29 q=-0.0 size= 5273100kB time=00:00:08.68 bitrate=4976640.0kbits/s speed=0.571x    frame=  448 fps= 28 q=-0.0 size= 5443200kB time=00:00:08.96 bitrate=4976640.0kbits/s speed=0.569x    frame=  462 fps= 28 q=-0.0 size= 5613300kB time=00:00:09.24 bitrate=4976640.0kbits/s speed=0.559x    frame=  469 fps= 27 q=-0.0 size= 5698350kB time=00:00:09.38 bitrate=4976640.0kbits/s speed=0.546x    frame=  480 fps= 27 q=-0.0 size= 5832000kB time=00:00:09.60 bitrate=4976640.0kbits/s speed=0.543x    frame=  494 fps= 27 q=-0.0 size= 6002100kB time=00:00:09.88 bitrate=4976640.0kbits/s speed=0.543x    frame=  500 fps= 27 q=-0.0 Lsize= 6075000kB time=00:00:10.00 bitrate=4976640.0kbits/s speed=0.543x    
video:6075000kB audio:0kB subtitle:0kB other streams:0kB global headers:0kB muxing overhead: 0.000000%
